PathFileType	4	(X/Y/Z)	 s05c0001.trc
DataRate	CameraRate	NumFrames	NumMarkers	Units	OrigDataRate	OrigDataStartFrame	OrigNumFrames
200	200	7	49	mm	200	1751	2000
Frame#	Time	racr			lacr			c7			jug			rlel			rdr			llel			ldr			s2			lic			ric			lasi			rasi			rpsi			lpsi			rgt			lgt			rth1			rth2			rth3			rth4			rlfc			rmfc			rsh1			rsh2			rsh3			rsh4			rlmal			rmmal			rcal			rtoe			rmt5			rmt1			lth1			lth2			lth4			lth3			llfc			lmfc			lsh1			lsh2			lsh3			lsh4			llmal			lmmal			lcal			ltoe			lmt1			lmt5			
		X1	Y1	Z1	X2	Y2	Z2	X3	Y3	Z3	X4	Y4	Z4	X5	Y5	Z5	X6	Y6	Z6	X7	Y7	Z7	X8	Y8	Z8	X9	Y9	Z9	X10	Y10	Z10	X11	Y11	Z11	X12	Y12	Z12	X13	Y13	Z13	X14	Y14	Z14	X15	Y15	Z15	X16	Y16	Z16	X17	Y17	Z17	X18	Y18	Z18	X19	Y19	Z19	X20	Y20	Z20	X21	Y21	Z21	X22	Y22	Z22	X23	Y23	Z23	X24	Y24	Z24	X25	Y25	Z25	X26	Y26	Z26	X27	Y27	Z27	X28	Y28	Z28	X29	Y29	Z29	X30	Y30	Z30	X31	Y31	Z31	X32	Y32	Z32	X33	Y33	Z33	X34	Y34	Z34	X35	Y35	Z35	X36	Y36	Z36	X37	Y37	Z37	X38	Y38	Z38	X39	Y39	Z39	X40	Y40	Z40	X41	Y41	Z41	X42	Y42	Z42	X43	Y43	Z43	X44	Y44	Z44	X45	Y45	Z45	X46	Y46	Z46	X47	Y47	Z47	X48	Y48	Z48	X49	Y49	Z49	
1751	8.7550	266.978095	1528.289127	350.104697	254.444639	1536.252380	3.448723	200.573543	1572.067511	172.936683	343.802386	1484.600927	171.556791	235.934929	1281.974900	535.302461	307.129159	1137.489726	743.522544	200.191589	1294.789337	-193.993202	233.205698	1160.741422	-431.870947	174.143281	1035.607312	180.734821	315.135716	1095.862897	31.063526	318.337774	1076.552921	316.564125	368.039158	1029.657454	62.814825	375.088513	1020.656847	284.245349	197.603011	1068.266892	223.887713	194.941000	1072.298509	134.665126	269.611247	923.367304	334.456701	241.580819	954.034892	10.382919	273.304660	825.141317	350.683698	285.536892	736.234016	349.765567	251.390427	656.029756	337.897341	322.028159	732.590483	341.108588	254.461279	507.623185	312.328542	246.945201	506.781363	211.312875	201.488021	410.124170	339.988027	217.034694	322.509349	330.960378	189.427460	242.060731	323.710512	249.383632	323.261580	308.230286	187.083460	109.585285	305.791067	212.846125	124.578369	227.900619	136.832561	62.409811	249.269219	424.662012	81.056152	309.467454	317.298952	44.863783	356.003451	350.554976	47.216175	242.567107	259.176193	822.257256	-10.958365	281.694893	739.469035	-4.991440	317.663438	739.351826	7.232565	256.696073	652.575979	6.083636	245.008810	517.019168	38.798038	238.071020	509.209631	138.832357	194.337713	400.059278	12.843272	209.716763	314.039991	22.833042	178.549122	231.010271	27.170887	242.013746	314.022391	43.333089	183.168673	108.798552	41.823415	211.775409	127.576081	115.100985	136.952951	57.385998	94.063293	425.007507	79.428908	39.346470	351.208514	48.217828	106.005582	312.824373	38.251761	-5.451459	
1752	8.7600	266.994762	1528.300133	350.091518	254.492537	1536.227132	3.417309	200.614307	1572.053574	172.896522	343.833716	1484.590690	171.548691	235.971488	1281.968014	535.264374	307.140311	1137.497133	743.506125	200.204244	1294.772111	-193.998445	233.268689	1160.703196	-431.873560	174.164039	1035.627822	180.738545	315.170396	1095.864613	31.073703	318.391061	1076.545204	316.551404	368.084562	1029.651117	62.818949	375.091159	1020.652683	284.230558	197.631460	1068.264486	223.884068	194.968114	1072.289573	134.662873	269.609589	923.373408	334.457405	241.603850	954.031816	10.391566	273.334028	825.141696	350.689042	285.556762	736.234632	349.757506	251.397467	656.030787	337.904068	322.049011	732.600599	341.099423	254.452436	507.577112	312.362687	246.947400	506.784945	211.303690	201.510827	410.122428	339.981672	217.091472	322.506684	330.985383	189.432331	242.060461	323.710944	249.405485	323.272540	308.228208	187.067222	109.587189	305.794621	212.833812	124.568344	227.901395	136.839947	62.387001	249.279673	424.674541	81.045483	309.470096	317.293885	44.864574	356.003552	350.565976	47.230287	242.553968	259.202813	822.271994	-10.947854	281.701557	739.473516	-5.010074	317.687180	739.360113	7.212149	256.712065	652.575005	6.088081	245.038594	517.025527	38.801844	238.079721	509.202749	138.820748	194.351488	400.067836	12.826605	209.726092	314.049860	22.841084	178.559851	231.006199	27.178534	242.011715	314.011151	43.340378	183.173395	108.806299	41.819156	211.759716	127.584937	115.095332	136.949656	57.377561	94.064791	425.020376	79.432461	39.349734	351.221214	48.230733	106.007444	312.823396	38.246694	-5.447587	
1753	8.7650	267.018968	1528.309075	350.086899	254.490044	1536.221208	3.425751	200.644453	1572.053849	172.874049	343.855904	1484.608211	171.538569	235.970113	1281.982113	535.284842	307.166734	1137.530288	743.519642	200.244150	1294.752300	-193.989191	233.318491	1160.658041	-431.851403	174.186533	1035.629002	180.719657	315.194928	1095.865686	31.071123	318.419860	1076.545905	316.545744	368.096912	1029.644943	62.808015	375.118711	1020.653671	284.257627	197.654215	1068.263198	223.875747	194.996810	1072.292443	134.663667	269.648567	923.359425	334.460013	241.633069	954.036721	10.387605	273.337936	825.134532	350.690179	285.587657	736.227448	349.757757	251.426701	656.032105	337.903279	322.060994	732.608115	341.103157	254.473878	507.579341	312.377286	246.957509	506.772355	211.314742	201.512021	410.135966	339.983709	217.061852	322.466888	330.976038	189.443374	242.056710	323.699675	249.406123	323.262576	308.225253	187.070278	109.602632	305.799051	212.827411	124.578153	227.899823	136.853904	62.393980	249.268528	424.672761	81.060712	309.478824	317.294742	44.860435	355.998995	350.568547	47.222915	242.566921	259.219178	822.263819	-10.959087	281.740240	739.465689	-5.005819	317.704317	739.348545	7.207247	256.730400	652.568475	6.093737	245.045186	517.018119	38.803077	238.103294	509.207539	138.821858	194.356264	400.068204	12.830979	209.724577	314.039190	22.835118	178.544520	231.002857	27.171012	242.020559	314.011831	43.325872	183.160561	108.814310	41.810027	211.765756	127.573261	115.096767	136.956151	57.391719	94.058422	425.012066	79.431364	39.344412	351.218106	48.206924	106.005618	312.830297	38.245083	-5.441771	
1754	8.7700	267.042620	1528.305019	350.067251	254.510575	1536.206230	3.401553	200.644449	1572.053842	172.874047	343.873090	1484.599897	171.520551	236.010574	1281.985789	535.260861	307.190763	1137.535013	743.506195	200.282294	1294.722231	-194.001312	233.374881	1160.632466	-431.843144	174.222904	1035.627997	180.721650	315.242979	1095.843891	31.068794	318.429043	1076.546248	316.561154	368.113516	1029.645819	62.806961	375.140948	1020.652252	284.248164	197.680430	1068.270270	223.879655	195.026459	1072.287183	134.666046	269.662161	923.370751	334.454948	241.641509	954.019337	10.388116	273.356525	825.146548	350.671763	285.603509	736.238267	349.752710	251.423394	656.049792	337.896263	322.076945	732.606513	341.115838	254.485218	507.570521	312.379023	246.984473	506.780659	211.313008	201.521348	410.128004	339.985639	217.073427	322.508483	330.978731	189.444200	242.060041	323.705209	249.404751	323.280862	308.252973	187.075347	109.597153	305.790832	212.820531	124.567646	227.911124	136.834022	62.395033	249.281729	424.663398	81.052399	309.467306	317.295745	44.869363	356.019489	350.563565	47.219775	242.582012	259.241227	822.251556	-10.971606	281.763902	739.453686	-4.991365	317.732935	739.362001	7.189972	256.751630	652.583308	6.081889	245.043362	517.012483	38.802692	238.101678	509.210782	138.822443	194.364142	400.066111	12.831833	209.735919	314.052575	22.836833	178.567585	231.006926	27.179349	242.027079	314.016771	43.341788	183.169926	108.809049	41.813887	211.778404	127.582922	115.115251	136.939996	57.393387	94.048761	425.011988	79.448745	39.350071	351.240460	48.231643	106.022772	312.824371	38.258685	-5.455240	
1755	8.7750	267.055632	1528.315036	350.055994	254.529662	1536.197038	3.400399	200.682310	1572.063805	172.836339	343.899903	1484.592503	171.512162	236.024981	1282.005713	535.252240	307.212144	1137.540616	743.491596	200.303349	1294.705742	-193.982984	233.419833	1160.589781	-431.827437	174.234980	1035.628119	180.730409	315.264123	1095.851209	31.060853	318.454186	1076.530744	316.563311	368.159353	1029.643119	62.820365	375.164012	1020.655657	284.260310	197.695477	1068.270055	223.872926	195.041624	1072.294940	134.659664	269.679339	923.364066	334.462176	241.667317	954.025536	10.381312	273.380231	825.144192	350.664694	285.615859	736.236645	349.742948	251.457307	656.051329	337.896384	322.098792	732.603068	341.102398	254.518333	507.620511	312.352308	246.986623	506.780110	211.318780	201.524675	410.136357	339.984911	217.110929	322.538318	330.954889	189.460698	242.067204	323.724433	249.404000	323.267570	308.231984	187.087968	109.585960	305.790498	212.830809	124.578733	227.898039	136.835638	62.398383	249.280039	424.670529	81.043065	309.480016	317.306984	44.864074	356.025028	350.568460	47.218601	242.570780	259.262816	822.250992	-10.957346	281.785778	739.464505	-5.004880	317.744261	739.354902	7.221721	256.768700	652.560947	6.095886	245.064955	517.018964	38.801373	238.104454	509.204351	138.842800	194.368607	400.075191	12.833076	209.747904	314.044496	22.841854	178.555439	231.001545	27.174214	242.030508	314.007528	43.348654	183.171982	108.808114	41.813182	211.765055	127.575071	115.100542	136.962561	57.384731	94.063971	425.023633	79.450567	39.348350	351.222775	48.232718	106.005672	312.837947	38.234736	-5.430486	
1756	8.7800	267.073407	1528.319334	350.033758	254.551647	1536.187859	3.383551	200.712457	1572.064083	172.813867	343.927406	1484.605247	171.502820	236.039300	1282.008084	535.233035	307.246211	1137.545877	743.484367	200.350813	1294.690824	-193.993980	233.485316	1160.551499	-431.811817	174.268415	1035.635236	180.715846	315.307697	1095.834664	31.072241	318.457299	1076.540303	316.563958	368.187574	1029.638004	62.806947	375.180457	1020.648108	284.279895	197.722771	1068.278089	223.877108	195.076024	1072.299013	134.648250	269.683029	923.357059	334.463228	241.691107	954.028387	10.402014	273.378042	825.146326	350.665837	285.622256	736.236679	349.746878	251.469758	656.044478	337.887197	322.108274	732.604556	341.111459	254.503535	507.572492	312.386118	247.001626	506.778406	211.336611	201.546719	410.140158	339.987492	217.144878	322.579821	330.982673	189.468861	242.050732	323.721169	249.439003	323.274750	308.228387	187.078642	109.585165	305.792303	212.843639	124.557818	227.911917	136.834036	62.400497	249.262805	424.677182	81.048755	309.475009	317.315258	44.852668	356.017532	350.580591	47.225802	242.564329	259.292807	822.256353	-10.954708	281.813731	739.428614	-4.979047	317.763938	739.333101	7.224850	256.792191	652.562384	6.086869	245.074153	517.012113	38.811752	238.120346	509.205825	138.838453	194.384536	400.068154	12.827461	209.740911	314.054024	22.851034	178.556064	231.002591	27.171288	242.029162	314.012727	43.340259	183.170158	108.803876	41.822253	211.794568	127.568437	115.101594	136.949918	57.378158	94.057191	425.029134	79.428124	39.368574	351.218324	48.239994	106.026953	312.838934	38.234089	-5.425002	
1757	8.7850	267.084683	1528.327792	350.025824	254.562687	1536.182767	3.368376	200.742603	1572.064362	172.791396	343.941372	1484.605706	171.500093	236.062035	1282.011945	535.236593	307.252671	1137.558195	743.463528	200.385303	1294.680815	-193.999735	233.550077	1160.488928	-431.804731	174.299176	1035.617910	180.724106	315.331910	1095.834567	31.067593	318.473109	1076.526606	316.553139	368.186047	1029.629506	62.805498	375.195089	1020.623853	284.262946	197.745119	1068.280373	223.872104	195.077705	1072.308853	134.644156	269.708404	923.361902	334.468235	241.715710	954.024569	10.373155	273.400861	825.140479	350.653894	285.631548	736.241807	349.735199	251.478259	656.034412	337.883046	322.119502	732.600378	341.116155	254.501816	507.570924	312.388943	247.008298	506.774793	211.321173	201.555503	410.135842	339.980793	217.114177	322.546607	330.970729	189.461219	242.064728	323.723339	249.420167	323.299273	308.250774	187.077468	109.584249	305.786571	212.851630	124.566932	227.910604	136.844549	62.408343	249.265189	424.674713	81.055055	309.469617	317.312728	44.853686	356.005776	350.578924	47.221928	242.564827	259.302143	822.244238	-10.964647	281.805373	739.463212	-5.014863	317.782648	739.336900	7.225726	256.798986	652.565687	6.084797	245.083380	517.011097	38.797964	238.115084	509.211479	138.830168	194.388428	400.073486	12.831587	209.747563	314.044686	22.850983	178.555422	231.003382	27.171010	242.028690	314.000723	43.337889	183.168374	108.816387	41.816590	211.770954	127.568115	115.103490	136.954416	57.387089	94.061912	425.024914	79.431600	39.353124	351.232157	48.219455	106.026062	312.826656	38.240577	-5.435448	
